<?xml version="1.0" encoding="utf-8"?>
<!-- Generator: Adobe Illustrator 16.0.0, SVG Export Plug-In . SVG Version: 6.00 Build 0)  -->
<!DOCTYPE svg PUBLIC "-//W3C//DTD SVG 1.1//EN" "http://www.w3.org/Graphics/SVG/1.1/DTD/svg11.dtd">
<svg version="1.1" id="Calque_1" xmlns="http://www.w3.org/2000/svg" xmlns:xlink="http://www.w3.org/1999/xlink" x="0px" y="0px"
	 width="100px" height="100px" viewBox="0 0 100 100" enable-background="new 0 0 100 100" xml:space="preserve">
<g>
	<path fill="#010101" d="M69.352,22.178L48.96,2.098c-0.313-0.312-0.624-0.52-1.041-0.624V23.53h22.056
		C69.872,22.906,69.664,22.49,69.352,22.178z"/>
	<path fill="#010101" d="M67.167,44.234c1.04,0,2.081,0,3.121,0.104V29.669h-25.49c-1.769,0-3.121-1.353-3.121-3.121V1.162H11.193
		c-1.769,0-3.121,1.353-3.121,3.121v70.955c0,1.769,1.353,3.121,3.121,3.121h24.97c-0.104-1.04-0.104-2.081-0.104-3.121
		C36.059,58.072,50,44.234,67.167,44.234z"/>
	<path fill="#010101" d="M67.167,50.477c-13.733,0-24.762,11.132-24.762,24.761C42.405,88.972,53.537,100,67.167,100
		c13.733,0,24.762-11.133,24.762-24.762C91.929,61.505,80.796,50.477,67.167,50.477z M77.675,74.927h-5.514v12.692
		c0,0.729-0.521,1.248-1.249,1.248h-7.699c-0.728,0-1.248-0.52-1.248-1.248V74.927h-5.514c-1.041,0-1.665-1.249-0.937-2.081
		l10.612-11.652c0.52-0.521,1.353-0.521,1.872,0l10.612,11.652C79.34,73.678,78.819,74.927,77.675,74.927z"/>
</g>
</svg>
